<svg xmlns="http://www.w3.org/2000/svg" viewBox="0 0 512 512" style="enable-background:new 0 0 512 512" xml:space="preserve"><path style="fill:#ff7a66" d="M29.642 223.663H18.863v-16.168h10.779v16.168z"/><path style="fill:#f2e8d1" d="M202.105 8.084c168.802 0 210.302 283.606 179.045 364.41-27.799 71.869-91.033 131.421-179.045 131.421-88.012 0-151.246-59.553-179.045-131.421C-8.195 291.69 33.304 8.084 202.105 8.084z"/><path style="fill:#eadcb9" d="M381.151 372.495c-27.8 71.869-91.034 131.421-179.046 131.421-8.308 0-16.395-.532-24.253-1.554 75.381-9.801 129.618-64.784 154.792-129.867 29.701-76.784-6.299-336.679-154.792-362.353a142.1 142.1 0 0 1 24.253-2.058c168.802 0 210.302 283.606 179.046 364.411z"/><path style="fill:#ff7a66" d="M8.084 224.935a19.497 19.497 0 0 1 10.779-17.44c0 17.86 82.041 32.337 183.242 32.337s183.242-14.477 183.242-32.337l10.779 70.833c0 20.41-86.866 36.957-194.021 36.957S8.084 298.738 8.084 278.327v-53.392z"/><path style="fill:#f95948" d="M234.442 314.772a1013.72 1013.72 0 0 1-32.337.512c-11.019 0-21.819-.178-32.337-.514v-75.441c10.497.33 21.302.502 32.337.502 11.035 0 21.839-.175 32.337-.504v75.445z"/><path style="fill:#ff977b" d="M503.916 188.415v135.171c0 35.977-41.464 56.13-69.754 33.903l-64.674-50.815a43.114 43.114 0 0 1-16.478-33.903 43.117 43.117 0 0 1-16.478 33.903l-64.674 50.815c-28.289 22.227-69.754 2.074-69.754-33.903V188.415c0-35.977 41.464-56.13 69.754-33.903l64.674 50.815a43.114 43.114 0 0 1 16.478 33.903 43.117 43.117 0 0 1 16.478-33.903l64.674-50.815c28.289-22.227 69.754-2.075 69.754 33.903z"/><path style="fill:#ff7a66" d="M503.916 188.415v135.171c0 21.329-14.574 37.096-32.337 41.767V146.646c17.763 4.672 32.337 20.438 32.337 41.769z"/><path style="fill:#f95948" d="M363.789 315.284h-21.558c-23.812 0-43.116-19.304-43.116-43.116v-32.337c0-23.812 19.304-43.116 43.116-43.116h21.558c23.812 0 43.116 19.304 43.116 43.116v32.337c0 23.812-19.303 43.116-43.116 43.116z"/><path style="fill:#ff7a66" d="M406.905 239.832v32.337a43.3 43.3 0 0 1-.272 4.79 53.783 53.783 0 0 1-18.592 3.294c-29.765 0-53.895-24.13-53.895-53.895v-10.779a53.787 53.787 0 0 1 3.294-18.592 43.545 43.545 0 0 1 4.79-.272h21.558c23.814.001 43.117 19.305 43.117 43.117z"/><path d="M335.75 108.968a8.083 8.083 0 0 1 3.223-10.969 8.08 8.08 0 0 1 10.969 3.223c9.46 17.331 17.814 36.695 24.833 57.555a8.084 8.084 0 0 1-5.084 10.24 8.07 8.07 0 0 1-2.579.425 8.087 8.087 0 0 1-7.661-5.508c-6.719-19.969-14.693-38.463-23.701-54.966zm56.19 256.526c-.982 3.544-2.075 6.88-3.25 9.918-15.045 38.897-39.072 72.125-69.478 96.093C285.603 497.997 245.109 512 202.105 512s-83.498-14.003-117.108-40.495c-30.407-23.968-54.433-57.196-69.478-96.093-7.565-19.559-11.068-49.514-9.917-84.578C2.402 287.555 0 283.417 0 278.327v-53.392c0-10.515 5.842-19.969 15.248-24.671a8.086 8.086 0 0 1 2.648-.796c9.124-38.971 26.213-89.914 57.696-131.456C109.794 22.883 152.36 0 202.105 0c26.068 0 50.548 6.476 72.762 19.249 20.048 11.527 38.372 28.252 54.464 49.71a8.085 8.085 0 0 1-12.935 9.701c-31.096-41.468-69.55-62.492-114.291-62.492-44.415 0-82.644 20.729-113.627 61.61-31.827 41.996-48.24 94.652-56.512 132.792 5.159 2.752 30.804 10.03 50.844 13.292 30.977 4.778 70.046 7.533 111.21 7.852v-6.974a8.084 8.084 0 0 1 16.168 0v98.845c0 13.728 7.371 25.506 19.718 31.507 12.346 6.001 26.163 4.52 36.957-3.961l33.726-26.499a8.084 8.084 0 1 1 9.989 12.713l-33.726 26.499c-15.541 12.211-36.239 14.428-54.014 5.789-17.773-8.64-28.816-26.285-28.816-46.049v-.248c-49.29-.38-95.413-4.23-130.623-10.936-17.531-3.339-31.59-7.25-41.826-11.633-.212 28.535 2.981 53.178 9.027 68.809 23.609 61.036 81.061 126.254 171.505 126.254s147.896-65.218 171.505-126.253c.983-2.542 1.908-5.368 2.748-8.4a8.085 8.085 0 1 1 15.582 4.317zM70.168 297.212c33.758 6.088 77.473 9.591 123.853 9.957v-59.283c-46.374-.351-89.752-3.716-122.892-9.564-17.413-3.073-31.201-6.699-40.978-10.779-2.67-1.115-8.378-3.496-12.912-7.457a11.436 11.436 0 0 0-1.07 4.851v53.258c.367.745 6.097 10.379 53.999 19.017zM512 188.414v89.862a8.084 8.084 0 0 1-16.168 0v-89.862c0-13.728-7.371-25.506-19.718-31.507-12.348-6.002-26.163-4.521-36.957 3.961l-46.609 36.623c10.513 7.163 18.233 18.136 21.157 30.915l44.093-17.638a8.082 8.082 0 0 1 10.508 4.503 8.083 8.083 0 0 1-4.503 10.508l-48.814 19.525v21.391l48.814 19.525a8.083 8.083 0 0 1 4.503 10.508 8.084 8.084 0 0 1-10.508 4.503l-44.093-17.638c-5.206 22.749-25.611 39.773-49.915 39.773h-21.558c-24.304 0-44.709-17.024-49.915-39.773l-44.093 17.638a8.082 8.082 0 0 1-10.508-4.503 8.083 8.083 0 0 1 4.503-10.508l48.814-19.526v-21.391l-48.814-19.525a8.083 8.083 0 0 1-4.503-10.508 8.08 8.08 0 0 1 10.508-4.503l44.093 17.638c2.924-12.778 10.644-23.752 21.157-30.915l-46.609-36.621c-10.794-8.482-24.611-9.963-36.957-3.961-12.347 6.002-19.718 17.78-19.718 31.507a8.084 8.084 0 0 1-16.168 0c0-19.764 11.043-37.409 28.819-46.049 17.774-8.639 38.472-6.422 54.014 5.789l53.335 41.906a51.137 51.137 0 0 1 12.042-1.43h21.558c4.146 0 8.179.496 12.042 1.43l53.335-41.906c15.54-12.211 36.238-14.429 54.014-5.789C500.957 151.006 512 168.65 512 188.414zM363.789 204.8h-21.558c-19.261 0-34.942 15.626-35.032 34.867.002.117.002.235 0 .352v31.962c.002.117.002.235 0 .352.089 19.24 15.77 34.867 35.032 34.867h2.695v-35.032a8.084 8.084 0 0 1 16.168 0V307.2h2.695c19.261 0 34.942-15.626 35.032-34.867a10.326 10.326 0 0 1 0-.352v-31.962a10.326 10.326 0 0 1 0-.352c-.089-19.241-15.771-34.867-35.032-34.867zm140.127 95.933a8.084 8.084 0 0 0-8.084 8.084v14.768c0 13.728-7.371 25.506-19.718 31.507-12.347 6.002-26.163 4.52-36.957-3.961l-33.169-26.061a8.085 8.085 0 0 0-9.989 12.713l33.169 26.061c9.257 7.274 20.343 11.001 31.551 11.001 7.61 0 15.275-1.718 22.463-5.212C500.957 360.994 512 343.35 512 323.586v-14.769a8.084 8.084 0 0 0-8.084-8.084z"/></svg>