<svg xmlns="http://www.w3.org/2000/svg" xmlns:xlink="http://www.w3.org/1999/xlink"
    viewBox="0 0 500 500" width="500" height="500"
    style="width: 100%; height: 100%; transform: translate3d(0px, 0px, 0px); content-visibility: visible;"
    preserveAspectRatio="xMidYMid meet">
    <defs>
        <clipPath id="__lottie_element_102">
            <rect width="500" height="500" x="0" y="0"></rect>
        </clipPath>
    </defs>
    <g clip-path="url(#__lottie_element_102)">
        <g style="display: block;" transform="matrix(1,0,0,1,0,0)" opacity="1">
            <g opacity="1" transform="matrix(1,0,0,1,185.97900390625,425.7969970703125)">
                <path fill="rgb(184,210,236)" fill-opacity="1"
                    d=" M-41.479000091552734,-10.821000099182129 C-41.479000091552734,-10.821000099182129 -32.46200180053711,-0.0010000000474974513 0,5.408999919891357 C32.46099853515625,10.819999694824219 41.479000091552734,9.015999794006348 41.479000091552734,9.015999794006348 C41.479000091552734,9.015999794006348 -41.479000091552734,-10.821000099182129 -41.479000091552734,-10.821000099182129z"></path>
            </g>
            <g opacity="1" transform="matrix(1,0,0,1,355.27899169921875,325.1340026855469)">
                <path fill="rgb(8,252,2)" fill-opacity="1"
                    d=" M-67.18499755859375,-76.51899719238281 C-88.41999816894531,-17.82699966430664 -83.45800018310547,56.327999114990234 -67.68499755859375,129.52200317382812 C-67.68499755859375,129.52200317382812 88.91899871826172,66.83300018310547 88.91899871826172,66.83300018310547 C88.91899871826172,66.83300018310547 83.11900329589844,-129.52099609375 83.11900329589844,-129.52099609375 C83.11900329589844,-129.52099609375 -67.18499755859375,-76.51899719238281 -67.18499755859375,-76.51899719238281z"></path>
            </g>
            <g opacity="1" transform="matrix(1,0,0,1,363.22900390625,241.30799865722656)">
                <path fill="rgb(1,153,2)" fill-opacity="1"
                    d=" M-75.80699920654297,32.62300109863281 C-75.80699920654297,32.62300109863281 75.80599975585938,-19.79199981689453 75.80599975585938,-19.79199981689453 C75.80599975585938,-19.79199981689453 75.52899932861328,-32.62300109863281 75.52899932861328,-32.62300109863281 C75.52899932861328,-32.62300109863281 -75.80699920654297,8.720999717712402 -75.80699920654297,8.720999717712402 C-75.80699920654297,8.720999717712402 -75.80699920654297,32.62300109863281 -75.80699920654297,32.62300109863281z"></path>
            </g>
            <g opacity="1" transform="matrix(1,0,0,1,174.32000732421875,328.3080139160156)">
                <path fill="rgb(3,189,2)" fill-opacity="1"
                    d=" M113.10299682617188,126.34300231933594 C113.10299682617188,126.34300231933594 -113.10199737548828,63.65399932861328 -113.10199737548828,63.65399932861328 C-113.10199737548828,63.65399932861328 -112.5459976196289,-126.34400177001953 -112.5459976196289,-126.34400177001953 C-112.5459976196289,-126.34400177001953 113.10299682617188,-84.37000274658203 113.10299682617188,-84.37000274658203 C113.10299682617188,-84.37000274658203 113.10299682617188,126.34300231933594 113.10299682617188,126.34300231933594z"></path>
            </g>
            <g opacity="1" transform="matrix(1,0,0,1,178.5679931640625,239.57699584960938)">
                <path fill="rgb(1,153,2)" fill-opacity="1"
                    d=" M-116.71499633789062,-18.02400016784668 C-116.71499633789062,-18.02400016784668 -117.20099639892578,-50.85499954223633 -117.20099639892578,-50.85499954223633 C-117.20099639892578,-50.85499954223633 108.8550033569336,4.361999988555908 108.8550033569336,4.361999988555908 C116.29199981689453,13.723999977111816 117.35099792480469,23.631000518798828 108.8550033569336,34.35499954223633 C108.8550033569336,34.35499954223633 -116.71499633789062,-18.02400016784668 -116.71499633789062,-18.02400016784668z"></path>
            </g>
            <g opacity="1" transform="matrix(1,0,0,1,367.22100830078125,332.05499267578125)">
                <path fill="rgb(1,153,2)" fill-opacity="1"
                    d=" M-8.114999771118164,-86.52799987792969 C-8.114999771118164,-86.52799987792969 -0.9010000228881836,91.93800354003906 -0.9010000228881836,91.93800354003906 C-0.9010000228881836,91.93800354003906 8.114999771118164,-91.93800354003906 8.114999771118164,-91.93800354003906 C8.114999771118164,-91.93800354003906 -8.114999771118164,-86.52799987792969 -8.114999771118164,-86.52799987792969z"></path>
            </g>
            <g opacity="1" transform="matrix(1,0,0,1,192.29100036621094,333.8580017089844)">
                <path fill="rgb(1,153,2)" fill-opacity="1"
                    d=" M6.311999797821045,-88.33100128173828 C6.311999797821045,-88.33100128173828 -2.7049999237060547,93.74099731445312 -2.7049999237060547,93.74099731445312 C-2.7049999237060547,93.74099731445312 -6.311999797821045,-93.74099731445312 -6.311999797821045,-93.74099731445312 C-6.311999797821045,-93.74099731445312 6.311999797821045,-88.33100128173828 6.311999797821045,-88.33100128173828z"></path>
            </g>
            <g opacity="1" transform="matrix(1,0,0,1,373.23699951171875,421.5830078125)">
                <path fill="rgb(219,236,255)" fill-opacity="1"
                    d=" M20.735000610351562,-9.625 C20.735000610351562,-9.625 20.976999282836914,-8.885000228881836 15.732999801635742,-3.6410000324249268 C10.48900032043457,1.6039999723434448 -13.489999771118164,9.62600040435791 -17.232999801635742,5.613999843597412 C-20.97599983215332,1.6039999723434448 20.735000610351562,-9.625 20.735000610351562,-9.625z"></path>
            </g>
        </g>
        <g style="display: block;" transform="matrix(1,0,0,1,0,0)" opacity="1">
            <g opacity="1" transform="matrix(1,0,0,1,354.4169921875,327.96600341796875)">
                <path fill="rgb(1,153,2)" fill-opacity="1"
                    d=" M-29.941999435424805,-50.650001525878906 C-29.941999435424805,-50.650001525878906 -7.7270002365112305,50.6510009765625 -7.7270002365112305,50.6510009765625 C-7.7270002365112305,50.6510009765625 29.941999435424805,-8.506999969482422 29.941999435424805,-8.506999969482422 C29.941999435424805,-8.506999969482422 -29.941999435424805,-50.650001525878906 -29.941999435424805,-50.650001525878906z"></path>
            </g>
        </g>
        <g style="display: block;"
            transform="matrix(0.9998477101325989,0.017452405765652657,-0.017452405765652657,0.9998477101325989,4.018951416015625,-6.52752685546875)"
            opacity="1">
            <g opacity="1" transform="matrix(1,0,0,1,250,156.99400329589844)">
                <path fill="rgb(1,228,1)" fill-opacity="1"
                    d=" M-34.064998626708984,-51.81100082397461 C-34.064998626708984,-51.81100082397461 -205.6269989013672,-13.586000442504883 -205.6269989013672,-13.586000442504883 C-205.6269989013672,-13.586000442504883 35.52899932861328,51.81100082397461 35.52899932861328,51.81100082397461 C35.52899932861328,51.81100082397461 205.6269989013672,-13.586000442504883 205.6269989013672,-13.586000442504883 C205.6269989013672,-13.586000442504883 -34.064998626708984,-51.81100082397461 -34.064998626708984,-51.81100082397461z"></path>
            </g>
            <g opacity="1" transform="matrix(1,0,0,1,353.99700927734375,198.50900268554688)">
                <path fill="rgb(8,252,2)" fill-opacity="1"
                    d=" M101.62999725341797,-55.10200119018555 C101.62999725341797,-55.10200119018555 90.02899932861328,14.50100040435791 90.02899932861328,14.50100040435791 C90.02899932861328,14.50100040435791 -66.5739974975586,55.10200119018555 -66.5739974975586,55.10200119018555 C-97.64800262451172,32.441001892089844 -101.63099670410156,10.831999778747559 -66.5739974975586,-9.256999969482422 C-66.5739974975586,-9.256999969482422 101.62999725341797,-55.10200119018555 101.62999725341797,-55.10200119018555z"></path>
            </g>
            <g opacity="1" transform="matrix(1,0,0,1,165.8979949951172,198.50900268554688)">
                <path fill="rgb(3,189,2)" fill-opacity="1"
                    d=" M-121.5250015258789,-55.10200119018555 C-121.5250015258789,-55.10200119018555 -115.7249984741211,9.255999565124512 -115.7249984741211,9.255999565124512 C-115.7249984741211,9.255999565124512 121.5250015258789,55.10200119018555 121.5250015258789,55.10200119018555 C121.5250015258789,55.10200119018555 121.5250015258789,-9.256999969482422 121.5250015258789,-9.256999969482422 C121.5250015258789,-9.256999969482422 -121.5250015258789,-55.10200119018555 -121.5250015258789,-55.10200119018555z"></path>
            </g>
            <g opacity="1" transform="matrix(1,0,0,1,321.6239929199219,139.41099548339844)">
                <path fill="rgb(3,189,2)" fill-opacity="1"
                    d=" M-20.339000701904297,6.4710001945495605 C-20.339000701904297,6.4710001945495605 24.03499984741211,4.622000217437744 24.03499984741211,4.622000217437744 C24.03499984741211,4.622000217437744 48.071998596191406,-4.622000217437744 48.071998596191406,-4.622000217437744 C48.071998596191406,-4.622000217437744 -3.697999954223633,-6.4710001945495605 -3.697999954223633,-6.4710001945495605 C-3.697999954223633,-6.4710001945495605 -48.071998596191406,-4.622000217437744 -48.071998596191406,-4.622000217437744 C-48.071998596191406,-4.622000217437744 -20.339000701904297,6.4710001945495605 -20.339000701904297,6.4710001945495605z"></path>
            </g>
            <g opacity="1" transform="matrix(1,0,0,1,202.86199951171875,127.98899841308594)">
                <path fill="rgb(3,189,2)" fill-opacity="1"
                    d=" M-66.40399932861328,-5.098999977111816 C-66.40399932861328,-5.098999977111816 53.11000061035156,13.119999885559082 53.11000061035156,13.119999885559082 C53.11000061035156,13.119999885559082 66.40399932861328,8.135000228881836 66.40399932861328,8.135000228881836 C66.40399932861328,8.135000228881836 -30.40399932861328,-13.119999885559082 -30.40399932861328,-13.119999885559082 C-30.40399932861328,-13.119999885559082 -66.40399932861328,-5.098999977111816 -66.40399932861328,-5.098999977111816z"></path>
            </g>
            <g opacity="1" transform="matrix(1,0,0,1,286.9200134277344,129.68899536132812)">
                <path fill="rgb(116,155,194)" fill-opacity="1"
                    d=" M-25.118999481201172,11.418999671936035 C-25.118999481201172,11.418999671936035 34.29800033569336,-7.7170000076293945 34.29800033569336,-7.7170000076293945 C34.29800033569336,-7.7170000076293945 11.083999633789062,-11.418999671936035 11.083999633789062,-11.418999671936035 C11.083999633789062,-11.418999671936035 -34.29800033569336,6.001999855041504 -34.29800033569336,6.001999855041504 C-34.29800033569336,6.001999855041504 -25.118999481201172,11.418999671936035 -25.118999481201172,11.418999671936035z"></path>
            </g>
            <g opacity="1" transform="matrix(1,0,0,1,209.0500030517578,152.85400390625)">
                <path fill="rgb(219,236,255)" fill-opacity="1"
                    d=" M64.54900360107422,-18.354999542236328 C64.54900360107422,-18.354999542236328 -19.35700035095215,18.354999542236328 -19.35700035095215,18.354999542236328 C-19.35700035095215,18.354999542236328 -64.54900360107422,9.717000007629395 -64.54900360107422,9.717000007629395 C-64.54900360107422,9.717000007629395 48.81700134277344,-18.354999542236328 48.81700134277344,-18.354999542236328 C48.81700134277344,-18.354999542236328 64.54900360107422,-18.354999542236328 64.54900360107422,-18.354999542236328z"></path>
            </g>
            <g opacity="1" transform="matrix(1,0,0,1,323.88299560546875,151.24000549316406)">
                <path fill="rgb(219,236,255)" fill-opacity="1"
                    d=" M40.632999420166016,16.739999771118164 C40.632999420166016,16.739999771118164 -73.09500122070312,-11.338000297546387 -73.09500122070312,-11.338000297546387 C-73.09500122070312,-11.338000297546387 -64.52200317382812,-16.739999771118164 -64.52200317382812,-16.739999771118164 C-64.52200317382812,-16.739999771118164 73.09400177001953,7.7230000495910645 73.09400177001953,7.7230000495910645 C73.09400177001953,7.7230000495910645 40.632999420166016,16.739999771118164 40.632999420166016,16.739999771118164z"></path>
            </g>
        </g>
        <g style="display: block;" transform="matrix(1,0,0,1,0,0)" opacity="1">
            <g opacity="1" transform="matrix(1,0,0,1,167.14199829101562,296.614013671875)">
                <path fill="rgb(184,210,236)" fill-opacity="1"
                    d=" M23.551000595092773,-128.406005859375 C23.551000595092773,-128.406005859375 -22.141000747680664,-138.04299926757812 -22.141000747680664,-138.04299926757812 C-22.141000747680664,-138.04299926757812 -22.961999893188477,118.33899688720703 -22.961999893188477,118.33899688720703 C-7.291999816894531,129.01400756835938 8.059000015258789,134.04299926757812 22.961999893188477,131.06700134277344 C22.961999893188477,131.06700134277344 23.551000595092773,-128.406005859375 23.551000595092773,-128.406005859375z"></path>
            </g>
            <g opacity="1" transform="matrix(1,0,0,1,380.74700927734375,291.1510009765625)">
                <path fill="rgb(219,236,255)" fill-opacity="1"
                    d=" M-16.229999542236328,-123.16999816894531 C-16.229999542236328,-123.16999816894531 -15.02299976348877,132.156005859375 -15.02299976348877,132.156005859375 C-3.11299991607666,132.18699645996094 7.23799991607666,129.67300415039062 13.62600040435791,120.68699645996094 C13.62600040435791,120.68699645996094 16.229999542236328,-132.18699645996094 16.229999542236328,-132.18699645996094 C16.229999542236328,-132.18699645996094 -16.229999542236328,-123.16999816894531 -16.229999542236328,-123.16999816894531z"></path>
            </g>
        </g>
        <g style="display: block;" transform="matrix(1,0,0,1,0,0)" opacity="1">
            <g opacity="1" transform="matrix(1,0,0,1,359.18701171875,272.4949951171875)">
                <path fill="rgb(243,252,243)" fill-opacity="1"
                    d=" M-1.9279999732971191,-43.38999938964844 C-1.9279999732971191,-43.38999938964844 29.56999969482422,-17.03499984741211 34.7130012512207,-8.03600025177002 C34.7130012512207,-8.03600025177002 0.0010000000474974513,43.38999938964844 0.0010000000474974513,43.38999938964844 C0.0010000000474974513,43.38999938964844 -25.711999893188477,17.677000045776367 -34.71200180053711,4.821000099182129 C-34.71200180053711,4.821000099182129 -1.9279999732971191,-43.38999938964844 -1.9279999732971191,-43.38999938964844z"></path>
            </g>
            <g opacity="1" transform="matrix(1,0,0,1,363.4679870605469,269.8169860839844)">
                <path fill="rgb(252,136,1)" fill-opacity="1"
                    d=" M0.8619999885559082,-0.8220000267028809 C0.8619999885559082,-0.8220000267028809 0.33799999952316284,-11.406999588012695 -5.811999797821045,-11.979000091552734 C-11.960000038146973,-12.552000045776367 -15.800999641418457,5.38700008392334 -12.12600040435791,12.552000045776367 C-12.12600040435791,12.552000045776367 4.704999923706055,11.63700008392334 10.253999710083008,5.330999851226807 C15.802000045776367,-0.9739999771118164 4.940999984741211,-5.099999904632568 0.8619999885559082,-0.8220000267028809z"></path>
            </g>
            <g opacity="1" transform="matrix(1,0,0,1,310.4939880371094,190.61300659179688)">
                <path stroke-linecap="round" stroke-linejoin="round" fill-opacity="0"
                    stroke="rgb(51,51,51)" stroke-opacity="1" stroke-width="6"
                    d=" M-45.694000244140625,-53.005001068115234 C-45.694000244140625,-53.005001068115234 34.73699951171875,-23.60099983215332 34.73699951171875,-23.60099983215332 C42.78499984741211,-21.10300064086914 48.2859992980957,-13.678000450134277 48.334999084472656,-5.251999855041504 C48.334999084472656,-5.251999855041504 48.69300079345703,49.505001068115234 48.69300079345703,49.505001068115234"></path>
            </g>
            <g opacity="1" transform="matrix(1,0,0,1,379.2080078125,306.864990234375)">
                <path fill="rgb(166,209,255)" fill-opacity="1"
                    d=" M14.692000389099121,-42.40599822998047 C14.692000389099121,-42.40599822998047 -13.833000183105469,42.40700149536133 -13.833000183105469,42.40700149536133 C-13.833000183105469,42.40700149536133 -14.690999984741211,1.1239999532699585 -14.690999984741211,1.1239999532699585 C-14.690999984741211,1.1239999532699585 14.692000389099121,-42.40599822998047 14.692000389099121,-42.40599822998047z"></path>
            </g>
        </g>
        <g style="display: block;"
            transform="matrix(0.9998477101325989,0.017452405765652657,-0.017452405765652657,0.9998477101325989,4.018951416015625,-6.52752685546875)"
            opacity="1">
            <g opacity="1" transform="matrix(1,0,0,1,190.31900024414062,100.89299774169922)">
                <path fill="rgb(159,179,200)" fill-opacity="1"
                    d=" M8.699999809265137,4.304999828338623 C8.699999809265137,4.304999828338623 -10.366000175476074,-16.674999237060547 -10.366000175476074,-16.674999237060547 C-25.829999923706055,-38.849998474121094 -41.823001861572266,-38.35599899291992 -58.3120002746582,-16.674999237060547 C-58.3120002746582,-16.674999237060547 -12.911999702453613,22.80299949645996 -12.911999702453613,22.80299949645996 C-12.911999702453613,22.80299949645996 58.29199981689453,38.849998474121094 58.29199981689453,38.849998474121094 C58.3120002746582,21.285999298095703 52.10200119018555,7.8420000076293945 26.60099983215332,7.158999919891357 C26.60099983215332,7.158999919891357 8.699999809265137,4.304999828338623 8.699999809265137,4.304999828338623z"></path>
            </g>
            <g opacity="1" transform="matrix(1,0,0,1,195.86199951171875,92.5459976196289)">
                <path fill="rgb(219,236,255)" fill-opacity="1"
                    d=" M52.749000549316406,47.196998596191406 C52.749000549316406,47.196998596191406 63.854000091552734,36.09299850463867 63.854000091552734,36.09299850463867 C63.854000091552734,36.09299850463867 19.43400001525879,-47.196998596191406 19.43400001525879,-47.196998596191406 C19.43400001525879,-47.196998596191406 -47.198001861572266,-47.196998596191406 -47.198001861572266,-47.196998596191406 C-47.198001861572266,-47.196998596191406 -63.85499954223633,-8.329000473022461 -63.85499954223633,-8.329000473022461 C-63.85499954223633,-8.329000473022461 -2.7769999504089355,-8.329000473022461 -2.7769999504089355,-8.329000473022461 C-2.7769999504089355,-8.329000473022461 52.749000549316406,47.196998596191406 52.749000549316406,47.196998596191406z"></path>
            </g>
            <g opacity="1" transform="matrix(1,0,0,1,320.281005859375,113.54499816894531)">
                <path fill="rgb(159,179,200)" fill-opacity="1"
                    d=" M-1.718000054359436,3.1670000553131104 C-1.718000054359436,3.1670000553131104 17.347999572753906,-10.819999694824219 17.347999572753906,-10.819999694824219 C30.215999603271484,-26.197999954223633 33.98500061035156,-15.199999809265137 52.35200119018555,-3.4230000972747803 C52.35200119018555,-3.4230000972747803 16.132999420166016,15.696999549865723 16.132999420166016,15.696999549865723 C16.132999420166016,15.696999549865723 -51.310001373291016,26.197999954223633 -51.310001373291016,26.197999954223633 C-52.35200119018555,15.079999923706055 -47.560001373291016,6.010000228881836 -19.618999481201172,5.070000171661377 C-19.618999481201172,5.070000171661377 -1.718000054359436,3.1670000553131104 -1.718000054359436,3.1670000553131104z"></path>
            </g>
            <g opacity="1" transform="matrix(1,0,0,1,315.25,101.61399841308594)">
                <path fill="rgb(219,236,255)" fill-opacity="1"
                    d=" M-46.27799987792969,38.130001068115234 C-46.27799987792969,38.130001068115234 -57.382999420166016,30.726999282836914 -57.382999420166016,30.726999282836914 C-57.382999420166016,30.726999282836914 -7.539999961853027,-38.130001068115234 -7.539999961853027,-38.130001068115234 C-7.539999961853027,-38.130001068115234 56.95199966430664,-22.006000518798828 56.95199966430664,-22.006000518798828 C56.95199966430664,-22.006000518798828 57.38399887084961,8.508000373840332 57.38399887084961,8.508000373840332 C57.38399887084961,8.508000373840332 9.246999740600586,1.1130000352859497 9.246999740600586,1.1130000352859497 C9.246999740600586,1.1130000352859497 -46.27799987792969,38.130001068115234 -46.27799987792969,38.130001068115234z"></path>
            </g>
            <g opacity="1" transform="matrix(1,0,0,1,259.4219970703125,134.49899291992188)">
                <path fill="rgb(219,236,255)" fill-opacity="1"
                    d=" M19.42099952697754,0 C19.42099952697754,0 22.531999588012695,7.328999996185303 2.621000051498413,8.907999992370605 C-17.288999557495117,10.48799991607666 -22.533000946044922,5.24399995803833 -22.533000946044922,0 C-22.533000946044922,-5.24399995803833 3.688999891281128,-10.48799991607666 19.42099952697754,0z"></path>
            </g>
        </g>
    </g>
</svg>