<svg
          xmlns="http://www.w3.org/2000/svg"
          viewBox="0 0 87 56"
          width="87"
          height="56"
          preserveAspectRatio="xMidYMid slice"
          style="width: 100%; height: 100%; transform: translate3d(0px, 0px, 0px); content-visibility: visible;"
        >
          <defs>
            <clipPath id="__lottie_element_4148">
              <rect width="87" height="56" x="0" y="0"></rect>
            </clipPath>
            <clipPath id="__lottie_element_4157">
              <path d="M0,0 L39,0 L39,39 L0,39z"></path>
            </clipPath>
            <mask id="__lottie_element_4160" mask-type="alpha">
              <g
                transform="matrix(1,0,0,1,19.5,19.5)"
                opacity="1"
                style="display: block;"
              >
                <path
                  fill="rgb(0,0,0)"
                  fill-opacity="1"
                  d=" M18.5,-18.5 C18.5,-18.5 18.5,18.5 18.5,18.5 C18.5,18.5 -18.5,18.5 -18.5,18.5 C-18.5,18.5 -18.5,-18.5 -18.5,-18.5 C-18.5,-18.5 18.5,-18.5 18.5,-18.5z"
                ></path>
              </g>
            </mask>
            <clipPath id="__lottie_element_4164">
              <path d="M0,0 L39,0 L39,39 L0,39z"></path>
            </clipPath>
            <clipPath id="__lottie_element_4168">
              <path d="M0,0 L37,0 L37,37 L0,37z"></path>
            </clipPath>
            <mask id="__lottie_element_4171" mask-type="alpha">
              <g
                transform="matrix(1,0,0,1,1,1)"
                opacity="1"
                style="display: block;"
              >
                <g opacity="1" transform="matrix(1,0,0,1,18,18)">
                  <path
                    fill="rgb(0,0,0)"
                    fill-opacity="1"
                    d=" M18,-18 C18,-18 18,18 18,18 C18,18 -18,18 -18,18 C-18,18 -18,-18 -18,-18 C-18,-18 18,-18 18,-18z"
                  ></path>
                </g>
              </g>
            </mask>
            <clipPath id="__lottie_element_4175">
              <path d="M0,0 L37,0 L37,37 L0,37z"></path>
            </clipPath>
            <clipPath id="__lottie_element_4180">
              <path d="M0,0 L39,0 L39,39 L0,39z"></path>
            </clipPath>
            <mask id="__lottie_element_4183" mask-type="alpha">
              <g
                transform="matrix(1,0,0,1,19.5,19.5)"
                opacity="1"
                style="display: block;"
              >
                <path
                  fill="rgb(0,0,0)"
                  fill-opacity="1"
                  d=" M18.5,-18.5 C18.5,-18.5 18.5,18.5 18.5,18.5 C18.5,18.5 -18.5,18.5 -18.5,18.5 C-18.5,18.5 -18.5,-18.5 -18.5,-18.5 C-18.5,-18.5 18.5,-18.5 18.5,-18.5z"
                ></path>
              </g>
            </mask>
            <clipPath id="__lottie_element_4187">
              <path d="M0,0 L39,0 L39,39 L0,39z"></path>
            </clipPath>
          </defs>
          <g clip-path="url(#__lottie_element_4148)">
            <g
              transform="matrix(1.063407063484192,0,0,1.063407063484192,34.33345413208008,35.50547790527344)"
              opacity="1"
              style="display: block;"
            >
              <path
                fill="rgb(213,102,4)"
                fill-opacity="1"
                d=" M-0.8776755332946777,-24.021068572998047 C8.488458633422852,-24.021068572998047 16.081207275390625,-16.428319931030273 16.081207275390625,-7.062185764312744 C16.081207275390625,2.303814172744751 8.488458633422852,9.896561622619629 -0.8776755332946777,9.896561622619629 C-10.243675231933594,9.896561622619629 -17.836423873901367,2.303814172744751 -17.836423873901367,-7.062185764312744 C-17.836423873901367,-16.428319931030273 -10.243675231933594,-24.021068572998047 -0.8776755332946777,-24.021068572998047 C-0.8776755332946777,-24.021068572998047 -0.8776755332946777,-24.021068572998047 -0.8776755332946777,-24.021068572998047 C-0.8776755332946777,-24.021068572998047 -0.8776755332946777,-24.021068572998047 -0.8776755332946777,-24.021068572998047z"
              ></path>
            </g>
            <g
              clip-path="url(#__lottie_element_4157)"
              transform="matrix(1,0,0,1,13.37139892578125,8)"
              opacity="1"
              style="display: block;"
            >
              <g mask="url(#__lottie_element_4160)" style="display: block;">
                <g
                  clip-path="url(#__lottie_element_4164)"
                  transform="matrix(1,0,0,1,0,0)"
                  opacity="1"
                >
                  <g
                    transform="matrix(1,0,0,1,1,1)"
                    opacity="1"
                    style="display: block;"
                  >
                    <path
                      fill="rgb(0,0,0)"
                      fill-opacity="0"
                      d=" M38,-1 C38,-1 38,38 38,38 C38,38 -1,38 -1,38 C-1,38 -1,-1 -1,-1 C-1,-1 38,-1 38,-1z"
                    ></path>
                  </g>
                  <g
                    clip-path="url(#__lottie_element_4168)"
                    transform="matrix(1,0,0,1,1,1)"
                    opacity="1"
                    style="display: block;"
                  >
                    <g
                      mask="url(#__lottie_element_4171)"
                      style="display: block;"
                    >
                      <g
                        clip-path="url(#__lottie_element_4175)"
                        transform="matrix(1,0,0,1,0,0)"
                        opacity="1"
                      >
                        <g
                          transform="matrix(1,0,0,1,0,0)"
                          opacity="1"
                          style="display: block;"
                        >
                          <path
                            fill="rgb(0,0,0)"
                            fill-opacity="0"
                            d=" M37,0 C37,0 37,37 37,37 C37,37 0,37 0,37 C0,37 0,0 0,0 C0,0 37,0 37,0z"
                          ></path>
                        </g>
                        <g
                          clip-path="url(#__lottie_element_4180)"
                          transform="matrix(1,0,0,1,-1,-1)"
                          opacity="1"
                          style="display: block;"
                        >
                          <g
                            mask="url(#__lottie_element_4183)"
                            style="display: block;"
                          >
                            <g
                              clip-path="url(#__lottie_element_4187)"
                              transform="matrix(1,0,0,1,0,0)"
                              opacity="1"
                            >
                              <g
                                transform="matrix(1,0,0,1,1,1)"
                                opacity="1"
                                style="display: block;"
                              >
                                <path
                                  fill="rgb(0,0,0)"
                                  fill-opacity="0"
                                  d=" M38,-1 C38,-1 38,38 38,38 C38,38 -1,38 -1,38 C-1,38 -1,-1 -1,-1 C-1,-1 38,-1 38,-1z"
                                ></path>
                              </g>
                              <g
                                transform="matrix(1,0,0,1,19.5,19.5)"
                                opacity="1"
                                style="display: block;"
                              >
                                <path
                                  fill="rgb(0,0,0)"
                                  fill-opacity="0"
                                  d=" M18.5,-18.5 C18.5,-18.5 18.5,18.5 18.5,18.5 C18.5,18.5 -18.5,18.5 -18.5,18.5 C-18.5,18.5 -18.5,-18.5 -18.5,-18.5 C-18.5,-18.5 18.5,-18.5 18.5,-18.5z"
                                ></path>
                              </g>
                              <g
                                transform="matrix(1,0,0,1,12,2)"
                                opacity="1"
                                style="display: block;"
                              >
                                <path
                                  fill="rgb(236,175,13)"
                                  fill-opacity="1"
                                  d=" M7.621699810028076,0 C7.916999816894531,0 8.212300300598145,0 8.507599830627441,0 C9.005999565124512,0.01816459931433201 9.503700256347656,0.04616840183734894 10,0.09536419808864594 C9.801199913024902,0.8893089890480042 9.593000411987305,1.6817400455474854 9.396400451660156,2.476439952850342 C6.589300155639648,2.242569923400879 3.7328999042510986,2.7723701000213623 1.1746000051498413,4 C0.7886999845504761,3.2961199283599854 0.39250001311302185,2.598299980163574 0,1.8982000350952148 C2.3775999546051025,0.7205299735069275 4.989500045776367,0.062062401324510574 7.621699810028076,0 C7.621699810028076,0 7.621699810028076,0 7.621699810028076,0 C7.621699810028076,0 7.621699810028076,0 7.621699810028076,0 C7.621699810028076,0 7.621699810028076,0 7.621699810028076,0z"
                                ></path>
                              </g>
                              <g
                                transform="matrix(1,0,0,1,25,3)"
                                opacity="1"
                                style="display: block;"
                              >
                                <path
                                  fill="rgb(236,175,13)"
                                  fill-opacity="1"
                                  d=" M0,2.1786398887634277 C0.1973000019788742,1.4533599615097046 0.390500009059906,0.7273799777030945 0.5809000134468079,0 C2.5862998962402344,0.674019992351532 4.4882001876831055,1.678030014038086 6.146200180053711,3.00711989402771 C7.19890022277832,3.8468399047851562 8.152299880981445,4.811530113220215 9,5.861889839172363 C8.34469985961914,6.240320205688477 7.695000171661377,6.6264801025390625 7.037700176239014,7 C5.181700229644775,4.78626012802124 2.7267000675201416,3.093480110168457 0,2.1786398887634277 C0,2.1786398887634277 0,2.1786398887634277 0,2.1786398887634277 C0,2.1786398887634277 0,2.1786398887634277 0,2.1786398887634277 C0,2.1786398887634277 0,2.1786398887634277 0,2.1786398887634277z"
                                ></path>
                              </g>
                              <g
                                transform="matrix(1,0,0,1,3,6)"
                                opacity="1"
                                style="display: block;"
                              >
                                <path
                                  fill="rgb(236,175,13)"
                                  fill-opacity="1"
                                  d=" M0,7.425300121307373 C1.2376400232315063,4.514039993286133 3.260730028152466,1.9162800312042236 5.8463897705078125,0 C6.234489917755127,0.6415200233459473 6.613329887390137,1.288540005683899 7,1.931439995765686 C4.921360015869141,3.531440019607544 3.2728400230407715,5.639969825744629 2.225330114364624,8 C1.48403000831604,7.8084001541137695 0.7427300214767456,7.614099979400635 0,7.425300121307373 C0,7.425300121307373 0,7.425300121307373 0,7.425300121307373 C0,7.425300121307373 0,7.425300121307373 0,7.425300121307373 C0,7.425300121307373 0,7.425300121307373 0,7.425300121307373z"
                                ></path>
                              </g>
                              <g
                                transform="matrix(1,0,0,1,6,6.000000953674316)"
                                opacity="1"
                                style="display: block;"
                              >
                                <path
                                  fill="rgb(236,175,13)"
                                  fill-opacity="1"
                                  d=" M12.63749885559082,0.06644982099533081 C15.10209846496582,-0.17563018202781677 17.629898071289062,0.24607981741428375 19.875598907470703,1.2929598093032837 C22.00969886779785,2.280909776687622 23.885498046875,3.818269729614258 25.278499603271484,5.712769985198975 C26.682798385620117,7.614299774169922 27.592899322509766,9.877900123596191 27.886999130249023,12.224299430847168 C28.240699768066406,14.972000122070312 27.759998321533203,17.822900772094727 26.503799438476562,20.294099807739258 C25.256799697875977,22.771699905395508 23.255298614501953,24.861299514770508 20.834897994995117,26.21619987487793 C18.55689811706543,27.501699447631836 15.910598754882812,28.117000579833984 13.299299240112305,27.981599807739258 C11.085899353027344,27.875699996948242 8.901298522949219,27.229400634765625 6.9867987632751465,26.113800048828125 C4.809948921203613,24.8528995513916 2.9846489429473877,22.994199752807617 1.7621588706970215,20.795799255371094 C0.49967890977859497,18.53999900817871 -0.10946108400821686,15.92770004272461 0.016158917918801308,13.34689998626709 C0.12141891568899155,10.963399887084961 0.8554789423942566,8.612799644470215 2.1235790252685547,6.592700004577637 C3.5825588703155518,4.254709720611572 5.744709014892578,2.361609935760498 8.259199142456055,1.231919765472412 C9.64159870147705,0.6067298054695129 11.127299308776855,0.21239982545375824 12.63749885559082,0.06644982099533081 C12.63749885559082,0.06644982099533081 12.63749885559082,0.06644982099533081 12.63749885559082,0.06644982099533081 C12.63749885559082,0.06644982099533081 12.63749885559082,0.06644982099533081 12.63749885559082,0.06644982099533081 C12.63749885559082,0.06644982099533081 12.63749885559082,0.06644982099533081 12.63749885559082,0.06644982099533081z M11.327999114990234,2.4093198776245117 C9.137099266052246,2.8583898544311523 7.096298694610596,3.988069772720337 5.550318717956543,5.603309631347656 C3.8632688522338867,7.213599681854248 2.6969189643859863,9.36139965057373 2.2898988723754883,11.65939998626709 C2.0835788249969482,12.723099708557129 2.104628801345825,13.810699462890625 2.122169017791748,14.888500213623047 C2.2133989334106445,17.239099502563477 3.0779788494110107,19.551799774169922 4.557318687438965,21.38170051574707 C4.958728790283203,21.888999938964844 5.42189884185791,22.34160041809082 5.882258892059326,22.794898986816406 C7.414898872375488,24.274700164794922 9.385499000549316,25.29279899597168 11.479598999023438,25.68720054626465 C12.625598907470703,25.910999298095703 13.800298690795898,25.908899307250977 14.962498664855957,25.864700317382812 C14.708398818969727,24.547698974609375 14.55259895324707,23.20330047607422 14.12389850616455,21.926198959350586 C13.91679859161377,21.3523006439209 13.617898941040039,20.815500259399414 13.28589916229248,20.303998947143555 C13.21299934387207,20.19379997253418 13.137898445129395,20.078699111938477 13.02349853515625,20.00790023803711 C12.600998878479004,19.767900466918945 12.161699295043945,19.55109977722168 11.686598777770996,19.438798904418945 C11.010098457336426,19.191099166870117 10.240999221801758,18.99959945678711 9.784798622131348,18.394699096679688 C9.321599006652832,17.911300659179688 9.259899139404297,17.20680046081543 9.246599197387695,16.571800231933594 C9.231099128723145,15.673699378967285 9.579198837280273,14.832399368286133 9.819198608398438,13.98330020904541 C9.099899291992188,13.933500289916992 8.372798919677734,13.893499374389648 7.673898696899414,13.706199645996094 C7.078098773956299,13.563699722290039 6.525798797607422,13.287300109863281 5.98331880569458,13.008699417114258 C5.414878845214844,12.713299751281738 4.968548774719238,12.246700286865234 4.55941915512085,11.763299942016602 C4.157309055328369,11.280499458312988 4.0064287185668945,10.651800155639648 3.852738857269287,10.05679988861084 C3.8365988731384277,9.86240005493164 3.7074689865112305,9.524199485778809 3.968528985977173,9.444199562072754 C4.661879062652588,9.33899974822998 5.366458892822266,9.352999687194824 6.066098690032959,9.359299659729004 C7.043698787689209,9.364999771118164 8.004399299621582,9.568399429321289 8.95319938659668,9.78030014038086 C10.080999374389648,10.07859992980957 11.158199310302734,10.627300262451172 12.004498481750488,11.437700271606445 C12.255699157714844,11.248199462890625 12.53429889678955,11.098799705505371 12.826998710632324,10.9822998046875 C12.810798645019531,10.43429946899414 12.927298545837402,9.896100044250488 12.993998527526855,9.35509967803955 C13.19749927520752,7.902699947357178 13.911898612976074,6.580699920654297 14.769498825073242,5.412459850311279 C14.897198677062988,5.2433600425720215 15.109099388122559,5.093899726867676 15.330899238586426,5.158459663391113 C15.586298942565918,5.241250038146973 15.7933988571167,5.4278998374938965 15.963898658752441,5.628569602966309 C16.38079833984375,6.182199954986572 16.786399841308594,6.783499717712402 16.9070987701416,7.479599952697754 C17.156198501586914,8.574899673461914 17.048099517822266,9.710199356079102 16.858699798583984,10.80620002746582 C17.19409942626953,10.900899887084961 17.549898147583008,10.975299835205078 17.83409881591797,11.190699577331543 C18.08609962463379,11.377300262451172 18.205398559570312,11.679100036621094 18.343599319458008,11.949199676513672 C18.53099822998047,11.937299728393555 18.706398010253906,12.022899627685547 18.829898834228516,12.160399436950684 C19.17169952392578,12.528800010681152 19.311399459838867,13.045199394226074 19.317699432373047,13.53849983215332 C19.463598251342773,13.641599655151367 19.61309814453125,13.74269962310791 19.783599853515625,13.800199508666992 C20.59419822692871,14.06820011138916 21.43699836730957,14.226099967956543 22.246898651123047,14.49489974975586 C22.61319923400879,14.682199478149414 23.016698837280273,14.474499702453613 23.40479850769043,14.522199630737305 C23.729698181152344,14.541199684143066 24.171798706054688,14.621199607849121 24.27079963684082,14.988800048828125 C24.34229850769043,15.33899974822998 24.356399536132812,15.738900184631348 24.13949966430664,16.044099807739258 C23.98509979248047,16.2637996673584 24.039899826049805,16.555700302124023 23.905799865722656,16.785799026489258 C23.5906982421875,17.515499114990234 22.876298904418945,17.927400588989258 22.28619956970215,18.409500122070312 C22.127599716186523,18.56169891357422 21.845399856567383,18.567298889160156 21.76399803161621,18.794700622558594 C21.529598236083984,19.301300048828125 21.107898712158203,19.68160057067871 20.702999114990234,20.05069923400879 C20.290998458862305,20.36079978942871 19.797698974609375,20.565000534057617 19.290298461914062,20.649900436401367 C18.73379898071289,20.72010040283203 18.170299530029297,20.703899383544922 17.612398147583008,20.662500381469727 C17.893098831176758,22.114999771118164 18.35759925842285,23.525299072265625 18.825698852539062,24.926599502563477 C20.55419921875,24.187000274658203 22.01599884033203,22.937299728393555 23.221599578857422,21.51289939880371 C25.19499969482422,19.124500274658203 26.136798858642578,15.92770004272461 25.83289909362793,12.84939956665039 C25.644798278808594,10.87279987335205 24.943798065185547,8.948200225830078 23.820898056030273,7.31119966506958 C22.376699447631836,5.195639610290527 20.24049949645996,3.5516297817230225 17.80889892578125,2.736999750137329 C15.732998847961426,2.0304198265075684 13.464899063110352,1.9279698133468628 11.327999114990234,2.4093198776245117 C11.327999114990234,2.4093198776245117 11.327999114990234,2.4093198776245117 11.327999114990234,2.4093198776245117 C11.327999114990234,2.4093198776245117 11.327999114990234,2.4093198776245117 11.327999114990234,2.4093198776245117 C11.327999114990234,2.4093198776245117 11.327999114990234,2.4093198776245117 11.327999114990234,2.4093198776245117z"
                                ></path>
                                <g
                                  opacity="1"
                                  transform="matrix(1,0,0,1,0,0)"
                                ></g>
                                <g
                                  opacity="1"
                                  transform="matrix(1,0,0,1,0,0)"
                                ></g>
                              </g>
                              <g
                                transform="matrix(1,0,0,1,34,12)"
                                opacity="1"
                                style="display: block;"
                              >
                                <path
                                  fill="rgb(236,175,13)"
                                  fill-opacity="1"
                                  d=" M0,1.0516999959945679 C0.6718999743461609,0.7074999809265137 1.3322999477386475,0.3449000120162964 2.003499984741211,0 C3.2867000102996826,2.342400074005127 4.0040998458862305,4.949999809265137 3.999799966812134,7.572700023651123 C4.0040998458862305,8.384200096130371 3.9398999214172363,9.195099830627441 3.823699951171875,10 C3.070199966430664,9.821599960327148 2.3189001083374023,9.63539981842041 1.5676000118255615,9.45110034942627 C1.9680999517440796,6.589399814605713 1.4074000120162964,3.633699893951416 0,1.0516999959945679 C0,1.0516999959945679 0,1.0516999959945679 0,1.0516999959945679 C0,1.0516999959945679 0,1.0516999959945679 0,1.0516999959945679 C0,1.0516999959945679 0,1.0516999959945679 0,1.0516999959945679z"
                                ></path>
                              </g>
                              <g
                                transform="matrix(1,0,0,1,1.9999998807907104,17)"
                                opacity="1"
                                style="display: block;"
                              >
                                <path
                                  fill="rgb(236,175,13)"
                                  fill-opacity="1"
                                  d=" M0,2.4779000282287598 C0.03692289814352989,1.6480000019073486 0.11278299987316132,0.8194000124931335 0.2551040053367615,0 C0.9458969831466675,0.17560000717639923 1.63332998752594,0.3610999882221222 2.3214399814605713,0.5444999933242798 C2.2167201042175293,1.5194000005722046 2.1133298873901367,2.4993999004364014 2.155630111694336,3.4814000129699707 C2.2005999088287354,4.928999900817871 2.4946401119232178,6.362800121307373 2.9753100872039795,7.731400012969971 C3.0525200366973877,7.888700008392334 2.9370501041412354,8.040200233459473 2.7893600463867188,8.099599838256836 C2.2335000038146973,8.381699562072754 1.7172499895095825,8.731599807739258 1.1546800136566162,9 C0.45583000779151917,7.22790002822876 0.06511860340833664,5.344900131225586 0,3.4481000900268555 C0,3.1247000694274902 0,2.801300048828125 0,2.4779000282287598 C0,2.4779000282287598 0,2.4779000282287598 0,2.4779000282287598 C0,2.4779000282287598 0,2.4779000282287598 0,2.4779000282287598 C0,2.4779000282287598 0,2.4779000282287598 0,2.4779000282287598z"
                                ></path>
                              </g>
                              <g
                                transform="matrix(1,0,0,1,29,25.999984741210938)"
                                opacity="1"
                                style="display: block;"
                              >
                                <path
                                  fill="rgb(236,175,13)"
                                  fill-opacity="1"
                                  d=" M5.811600208282471,0.022316735237836838 C5.918099880218506,-0.03418326377868652 6.035399913787842,0.03181673586368561 6.141900062561035,0.053616736084222794 C6.755300045013428,0.23591673374176025 7.389500141143799,0.35021674633026123 8,0.5400167107582092 C7.277200222015381,2.4924166202545166 6.167699813842773,4.315616607666016 4.758500099182129,5.892516613006592 C3.7026000022888184,7.0741167068481445 2.474400043487549,8.112916946411133 1.138200044631958,9.000017166137695 C0.7541999816894531,8.372117042541504 0.3725000023841858,7.742816925048828 0,7.108816623687744 C0.8278999924659729,6.508116722106934 1.6399999856948853,5.880916595458984 2.357100009918213,5.159116744995117 C3.7776999473571777,3.7571167945861816 4.897900104522705,2.0856168270111084 5.656499862670898,0.27811673283576965 C5.700799942016602,0.18961673974990845 5.725800037384033,0.08351673185825348 5.811600208282471,0.022316735237836838 C5.811600208282471,0.022316735237836838 5.811600208282471,0.022316735237836838 5.811600208282471,0.022316735237836838 C5.811600208282471,0.022316735237836838 5.811600208282471,0.022316735237836838 5.811600208282471,0.022316735237836838 C5.811600208282471,0.022316735237836838 5.811600208282471,0.022316735237836838 5.811600208282471,0.022316735237836838z"
                                ></path>
                              </g>
                              <g
                                transform="matrix(1,0,0,1,5,29)"
                                opacity="1"
                                style="display: block;"
                              >
                                <path
                                  fill="rgb(236,175,13)"
                                  fill-opacity="1"
                                  d=" M0,1.0262000560760498 C0.6098600029945374,0.6729999780654907 1.2331500053405762,0.34119999408721924 1.8503899574279785,0 C3.3763699531555176,2.148699998855591 5.518929958343506,3.901099920272827 8,5.0071001052856445 C7.811299800872803,5.670499801635742 7.624499797821045,6.335299968719482 7.439799785614014,7 C5.899759769439697,6.339099884033203 4.448999881744385,5.485000133514404 3.170180082321167,4.439199924468994 C1.950469970703125,3.4484000205993652 0.8919500112533569,2.2880001068115234 0,1.0262000560760498 C0,1.0262000560760498 0,1.0262000560760498 0,1.0262000560760498 C0,1.0262000560760498 0,1.0262000560760498 0,1.0262000560760498 C0,1.0262000560760498 0,1.0262000560760498 0,1.0262000560760498z"
                                ></path>
                              </g>
                              <g
                                transform="matrix(1,0,0,1,16,35)"
                                opacity="1"
                                style="display: block;"
                              >
                                <path
                                  fill="rgb(236,175,13)"
                                  fill-opacity="1"
                                  d=" M0.600600004196167,0.6987000107765198 C3.6714999675750732,1.2410999536514282 6.911300182342529,0.9934999942779541 9.82979965209961,0 C10.218199729919434,0.5884000062942505 10.606599807739258,1.17739999294281 11,1.7640000581741333 C8.90149974822998,2.513000011444092 6.652100086212158,2.9439001083374023 4.383999824523926,3 C4.047599792480469,3 3.711199998855591,3 3.374799966812134,3 C2.2414000034332275,2.9621999263763428 1.1109999418258667,2.851300001144409 0,2.652899980545044 C0.19779999554157257,2.0007998943328857 0.40639999508857727,1.3513000011444092 0.600600004196167,0.6987000107765198 C0.600600004196167,0.6987000107765198 0.600600004196167,0.6987000107765198 0.600600004196167,0.6987000107765198 C0.600600004196167,0.6987000107765198 0.600600004196167,0.6987000107765198 0.600600004196167,0.6987000107765198 C0.600600004196167,0.6987000107765198 0.600600004196167,0.6987000107765198 0.600600004196167,0.6987000107765198z"
                                ></path>
                              </g>
                            </g>
                          </g>
                        </g>
                      </g>
                    </g>
                  </g>
                </g>
              </g>
            </g>
            <g
              transform="matrix(0.026457350701093674,0.004190432373434305,-0.004190432373434305,0.026457350701093674,-1.187488079071045,39.04636001586914)"
              opacity="1"
              style="display: block;"
            >
              <g
                opacity="1"
                transform="matrix(1,0,0,1,694.5238037109375,97.05978393554688)"
              >
                <g
                  opacity="1"
                  transform="matrix(0.9135454297065735,0.4067366421222687,-0.4067366421222687,0.9135454297065735,-594.1356201171875,-1368.156005859375)"
                >
                  <g
                    opacity="1"
                    transform="matrix(1,0,0,1,1323.14794921875,770.6430053710938)"
                  >
                    <path
                      fill="rgb(120,64,236)"
                      fill-opacity="1"
                      d=" M209.98800659179688,-71.73100280761719 C161.09500122070312,-187.8939971923828 76.59400177001953,-273.3089904785156 -13.029000282287598,-309.35699462890625 C-4.056000232696533,-284.41400146484375 1.0219999551773071,-256.2919921875 1.0219999551773071,-226.50799560546875 C1.0219999551773071,-124.00499725341797 -58.78200149536133,-40.909000396728516 -132.552001953125,-40.909000396728516 C-178.56399536132812,-40.909000396728516 -213.25,-75.45999908447266 -228.03399658203125,-50.80500030517578 C-241.20700073242188,-23.82900047302246 -269.9530029296875,79.3030014038086 -243.15499877929688,116.8030014038086 C-189.97500610351562,158.52200317382812 -126.52100372314453,92.64399719238281 -51.645999908447266,92.64399719238281 C56.698001861572266,92.64399719238281 150.11500549316406,181.36399841308594 193.072998046875,309.35699462890625 C259.3940124511719,219.17300415039062 269.9530029296875,70.73799896240234 209.98800659179688,-71.73100280761719 C209.98800659179688,-71.73100280761719 209.98800659179688,-71.73100280761719 209.98800659179688,-71.73100280761719 C209.98800659179688,-71.73100280761719 209.98800659179688,-71.73100280761719 209.98800659179688,-71.73100280761719z"
                    ></path>
                  </g>
                  <g
                    opacity="1"
                    transform="matrix(1,0,0,1,1307.9300537109375,946.8150024414062)"
                  >
                    <path
                      fill="rgb(78,37,166)"
                      fill-opacity="1"
                      d=" M-19.775999069213867,-131.3459930419922 C-100.80599975585938,-131.3459930419922 -169.4770050048828,-65.46800231933594 -227.0279998779297,-107.18699645996094 C-232.2779998779297,-113.9749984741211 -235.53599548339844,-122.93599700927734 -237.30299377441406,-133.18499755859375 C-240.7100067138672,-103.95500183105469 -239.5,-75.55000305175781 -227.93600463867188,-59.36899948120117 C-174.7570037841797,-17.649999618530273 -111.302001953125,-83.5270004272461 -36.426998138427734,-83.5270004272461 C71.91600036621094,-83.5270004272461 165.33299255371094,5.191999912261963 208.29100036621094,133.18499755859375 C221.28700256347656,115.51200103759766 232.11000061035156,95.57599639892578 240.71099853515625,73.91300201416016 C192.46600341796875,-47.887001037597656 93.94499969482422,-131.3459930419922 -19.775999069213867,-131.3459930419922 C-19.775999069213867,-131.3459930419922 -19.775999069213867,-131.3459930419922 -19.775999069213867,-131.3459930419922 C-19.775999069213867,-131.3459930419922 -19.775999069213867,-131.3459930419922 -19.775999069213867,-131.3459930419922z"
                    ></path>
                  </g>
                </g>
                <g
                  opacity="1"
                  transform="matrix(0.9135454297065735,-0.4067366421222687,0.4067366421222687,0.9135454297065735,-1219.12255859375,-489.6048278808594)"
                >
                  <g
                    opacity="1"
                    transform="matrix(1,0,0,1,836.85302734375,770.6430053710938)"
                  >
                    <path
                      fill="rgb(120,64,236)"
                      fill-opacity="1"
                      d=" M-209.98800659179688,-71.73100280761719 C-161.09500122070312,-187.8939971923828 -76.59500122070312,-273.3089904785156 13.029000282287598,-309.35699462890625 C4.054999828338623,-284.41400146484375 -1.0219999551773071,-256.2919921875 -1.0219999551773071,-226.50799560546875 C-1.0219999551773071,-124.00499725341797 58.78200149536133,-40.909000396728516 132.552001953125,-40.909000396728516 C178.56399536132812,-40.909000396728516 213.24899291992188,-75.45999908447266 228.0330047607422,-50.80500030517578 C241.20599365234375,-23.82900047302246 269.9530029296875,79.3030014038086 243.15499877929688,116.8030014038086 C189.97500610351562,158.52200317382812 126.52100372314453,92.64399719238281 51.645999908447266,92.64399719238281 C-56.698001861572266,92.64399719238281 -150.11500549316406,181.36399841308594 -193.072998046875,309.35699462890625 C-259.3940124511719,219.17300415039062 -269.9519958496094,70.73799896240234 -209.98800659179688,-71.73100280761719 C-209.98800659179688,-71.73100280761719 -209.98800659179688,-71.73100280761719 -209.98800659179688,-71.73100280761719 C-209.98800659179688,-71.73100280761719 -209.98800659179688,-71.73100280761719 -209.98800659179688,-71.73100280761719z"
                    ></path>
                  </g>
                  <g
                    opacity="1"
                    transform="matrix(1,0,0,1,852.0430297851562,946.8150024414062)"
                  >
                    <path
                      fill="rgb(78,37,166)"
                      fill-opacity="1"
                      d=" M19.775999069213867,-131.3459930419922 C100.80599975585938,-131.3459930419922 169.4770050048828,-65.46800231933594 227.0279998779297,-107.18699645996094 C232.2779998779297,-113.9749984741211 235.53599548339844,-122.93599700927734 237.3040008544922,-133.18499755859375 C240.7100067138672,-103.95500183105469 239.5,-75.55000305175781 227.93600463867188,-59.36899948120117 C174.7570037841797,-17.649999618530273 111.3030014038086,-83.5270004272461 36.428001403808594,-83.5270004272461 C-71.91699981689453,-83.5270004272461 -165.33299255371094,5.191999912261963 -208.29100036621094,133.18499755859375 C-221.28700256347656,115.51200103759766 -232.10899353027344,95.57599639892578 -240.71099853515625,73.91300201416016 C-192.46600341796875,-47.887001037597656 -93.94400024414062,-131.3459930419922 19.775999069213867,-131.3459930419922 C19.775999069213867,-131.3459930419922 19.775999069213867,-131.3459930419922 19.775999069213867,-131.3459930419922 C19.775999069213867,-131.3459930419922 19.775999069213867,-131.3459930419922 19.775999069213867,-131.3459930419922z"
                    ></path>
                  </g>
                </g>
                <g
                  opacity="1"
                  transform="matrix(1,0,0,1,79.99307250976562,-188.85699462890625)"
                >
                  <path
                    fill="rgb(120,64,236)"
                    fill-opacity="1"
                    d=" M66.8479995727539,-91.5979995727539 C42.573001861572266,-101.18299865722656 24.025999069213867,-113.73400115966797 0.009999999776482582,-162.9029998779297 C0.008999999612569809,-162.91299438476562 0.00800000037997961,-162.9290008544922 0.006000000052154064,-162.93800354003906 C0.004000000189989805,-162.93299865722656 0.003000000026077032,-162.9290008544922 0,-162.9239959716797 C-0.0020000000949949026,-162.9290008544922 -0.004000000189989805,-162.93299865722656 -0.006000000052154064,-162.93800354003906 C-0.007000000216066837,-162.9290008544922 -0.008999999612569809,-162.91299438476562 -0.009999999776482582,-162.9029998779297 C-24.025999069213867,-113.73400115966797 -42.57099914550781,-101.18299865722656 -66.84700012207031,-91.5979995727539 C-73.10900115966797,-89.125 -125.27200317382812,35.68199920654297 -87.61699676513672,80.96399688720703 C-44.167999267578125,107.84300231933594 -31.097000122070312,123.75199890136719 -0.006000000052154064,162.92100524902344 C-0.006000000052154064,162.92100524902344 -0.006000000052154064,162.93800354003906 -0.006000000052154064,162.93800354003906 C-0.004000000189989805,162.93499755859375 -0.0020000000949949026,162.93299865722656 0,162.92999267578125 C0.003000000026077032,162.93299865722656 0.004000000189989805,162.93499755859375 0.006000000052154064,162.93800354003906 C0.006000000052154064,162.93800354003906 0.006000000052154064,162.92100524902344 0.006000000052154064,162.92100524902344 C31.097000122070312,123.75199890136719 44.16899871826172,107.84300231933594 87.61900329589844,80.96399688720703 C125.27300262451172,35.68199920654297 73.11000061035156,-89.125 66.8479995727539,-91.5979995727539 C66.8479995727539,-91.5979995727539 66.8479995727539,-91.5979995727539 66.8479995727539,-91.5979995727539 C66.8479995727539,-91.5979995727539 66.8479995727539,-91.5979995727539 66.8479995727539,-91.5979995727539z"
                  ></path>
                </g>
                <g
                  opacity="1"
                  transform="matrix(1,0,0,1,128.46498107910156,-127.76898193359375)"
                >
                  <path
                    fill="rgb(78,37,166)"
                    fill-opacity="1"
                    d=" M39.87300109863281,-101.8499984741211 C39.354000091552734,-56.733001708984375 33.159000396728516,-3.921999931335449 13.369000434875488,19.87700080871582 C-23.589000701904297,42.74100112915039 -38.573001861572266,57.67499923706055 -61.36000061035156,85.73200225830078 C-57.358001708984375,90.65899658203125 -53.12200164794922,95.98200225830078 -48.47800064086914,101.83200073242188 C-48.47800064086914,101.83200073242188 -48.47800064086914,101.8499984741211 -48.47800064086914,101.8499984741211 C-48.47600173950195,101.8479995727539 -48.4739990234375,101.84400177001953 -48.47200012207031,101.84100341796875 C-48.46900177001953,101.84400177001953 -48.46699905395508,101.8479995727539 -48.46500015258789,101.8499984741211 C-48.46500015258789,101.8499984741211 -48.46500015258789,101.83200073242188 -48.46500015258789,101.83200073242188 C-17.374000549316406,62.66299819946289 -4.302999973297119,46.75600051879883 39.145999908447266,19.87700080871582 C61.36000061035156,-6.8379998207092285 52.3129997253418,-61.22700119018555 39.87300109863281,-101.8499984741211 C39.87300109863281,-101.8499984741211 39.87300109863281,-101.8499984741211 39.87300109863281,-101.8499984741211 C39.87300109863281,-101.8499984741211 39.87300109863281,-101.8499984741211 39.87300109863281,-101.8499984741211z"
                  ></path>
                </g>
                <g
                  opacity="1"
                  transform="matrix(1,0,0,1,31.535093307495117,-127.76898193359375)"
                >
                  <path
                    fill="rgb(78,37,166)"
                    fill-opacity="1"
                    d=" M-39.87200164794922,-101.8499984741211 C-39.35300064086914,-56.733001708984375 -33.15800094604492,-3.921999931335449 -13.368000030517578,19.87700080871582 C23.59000015258789,42.74100112915039 38.573001861572266,57.67499923706055 61.36000061035156,85.73200225830078 C57.358001708984375,90.65899658203125 53.12300109863281,95.98200225830078 48.479000091552734,101.83200073242188 C48.479000091552734,101.83200073242188 48.479000091552734,101.8499984741211 48.479000091552734,101.8499984741211 C48.47700119018555,101.8479995727539 48.474998474121094,101.84400177001953 48.472999572753906,101.84100341796875 C48.470001220703125,101.84400177001953 48.46699905395508,101.8479995727539 48.46500015258789,101.8499984741211 C48.46500015258789,101.8499984741211 48.46500015258789,101.83200073242188 48.46500015258789,101.83200073242188 C17.374000549316406,62.66299819946289 4.303999900817871,46.75600051879883 -39.14500045776367,19.87700080871582 C-61.36000061035156,-6.8379998207092285 -52.3120002746582,-61.22700119018555 -39.87200164794922,-101.8499984741211 C-39.87200164794922,-101.8499984741211 -39.87200164794922,-101.8499984741211 -39.87200164794922,-101.8499984741211 C-39.87200164794922,-101.8499984741211 -39.87200164794922,-101.8499984741211 -39.87200164794922,-101.8499984741211z"
                  ></path>
                </g>
                <g opacity="1" transform="matrix(1,0,0,1,-1000,-1004)">
                  <g
                    opacity="1"
                    transform="matrix(1,0,0,1,1075.281982421875,686.781982421875)"
                  >
                    <path
                      fill="rgb(120,64,236)"
                      fill-opacity="1"
                      d=" M56.367000579833984,-61.172000885009766 C57.46500015258789,-63.667999267578125 58.41999816894531,-66.25 59.19599914550781,-68.93000030517578 C63.75,-84.66100311279297 61.78300094604492,-100.8740005493164 54.823001861572266,-115.1500015258789 C44.02299880981445,-108.4739990234375 35.26900100708008,-99.04000091552734 29.863000869750977,-87.48799896240234 C20.69499969482422,-92.94000244140625 10.602999687194824,-95.96600341796875 0,-95.96600341796875 C-10.602999687194824,-95.96600341796875 -20.69499969482422,-92.94000244140625 -29.86199951171875,-87.48799896240234 C-35.27000045776367,-99.04000091552734 -44.02399826049805,-108.4739990234375 -54.82400131225586,-115.1500015258789 C-61.784000396728516,-100.8740005493164 -63.75,-84.66100311279297 -59.19599914550781,-68.93000030517578 C-58.41999816894531,-66.25 -57.46500015258789,-63.667999267578125 -56.36600112915039,-61.172000885009766 C-68.54900360107422,-42.45000076293945 -75.97000122070312,-17.634000778198242 -75.97000122070312,9.592000007629395 C-75.97000122070312,67.89099884033203 -41.957000732421875,115.1500015258789 0,115.1500015258789 C41.95800018310547,115.1500015258789 75.97000122070312,67.89099884033203 75.97000122070312,9.592000007629395 C75.97000122070312,-17.634000778198242 68.54900360107422,-42.45000076293945 56.367000579833984,-61.172000885009766 C56.367000579833984,-61.172000885009766 56.367000579833984,-61.172000885009766 56.367000579833984,-61.172000885009766 C56.367000579833984,-61.172000885009766 56.367000579833984,-61.172000885009766 56.367000579833984,-61.172000885009766z"
                    ></path>
                  </g>
                  <g
                    opacity="1"
                    transform="matrix(1,0,0,1,1075.281982421875,744.35400390625)"
                  >
                    <path
                      fill="rgb(78,37,166)"
                      fill-opacity="1"
                      d=" M0,38.54899978637695 C-39.66699981689453,38.54899978637695 -72.21800231933594,-3.7019999027252197 -75.65299987792969,-57.57899856567383 C-75.85800170898438,-54.41699981689453 -75.97100067138672,-51.21699905395508 -75.97100067138672,-47.97999954223633 C-75.97100067138672,10.319000244140625 -41.957000732421875,57.57899856567383 0,57.57899856567383 C41.95800018310547,57.57899856567383 75.97000122070312,10.319000244140625 75.97000122070312,-47.97999954223633 C75.97000122070312,-51.21699905395508 75.85700225830078,-54.41699981689453 75.6510009765625,-57.57899856567383 C72.21600341796875,-3.7019999027252197 39.66899871826172,38.54899978637695 0,38.54899978637695 C0,38.54899978637695 0,38.54899978637695 0,38.54899978637695 C0,38.54899978637695 0,38.54899978637695 0,38.54899978637695z"
                    ></path>
                  </g>
                </g>
              </g>
            </g>
            <g
              transform="matrix(0.01622813194990158,-0.0040461281314492226,0.0040461281314492226,0.01622813194990158,38.56306838989258,49.363033294677734)"
              opacity="1"
              style="display: block;"
            >
              <g
                opacity="1"
                transform="matrix(1,0,0,1,694.5491333007812,97.0566635131836)"
              >
                <g
                  opacity="1"
                  transform="matrix(0.9447030425071716,0.32792699337005615,-0.32792699337005615,0.9447030425071716,-688.1757202148438,-1307.923583984375)"
                >
                  <g
                    opacity="1"
                    transform="matrix(1,0,0,1,1323.14794921875,770.6430053710938)"
                  >
                    <path
                      fill="rgb(120,64,236)"
                      fill-opacity="1"
                      d=" M209.98800659179688,-71.73100280761719 C161.09500122070312,-187.8939971923828 76.59400177001953,-273.3089904785156 -13.029000282287598,-309.35699462890625 C-4.056000232696533,-284.41400146484375 1.0219999551773071,-256.2919921875 1.0219999551773071,-226.50799560546875 C1.0219999551773071,-124.00499725341797 -58.78200149536133,-40.909000396728516 -132.552001953125,-40.909000396728516 C-178.56399536132812,-40.909000396728516 -213.25,-75.45999908447266 -228.03399658203125,-50.80500030517578 C-241.20700073242188,-23.82900047302246 -269.9530029296875,79.3030014038086 -243.15499877929688,116.8030014038086 C-189.97500610351562,158.52200317382812 -126.52100372314453,92.64399719238281 -51.645999908447266,92.64399719238281 C56.698001861572266,92.64399719238281 150.11500549316406,181.36399841308594 193.072998046875,309.35699462890625 C259.3940124511719,219.17300415039062 269.9530029296875,70.73799896240234 209.98800659179688,-71.73100280761719 C209.98800659179688,-71.73100280761719 209.98800659179688,-71.73100280761719 209.98800659179688,-71.73100280761719 C209.98800659179688,-71.73100280761719 209.98800659179688,-71.73100280761719 209.98800659179688,-71.73100280761719z"
                    ></path>
                  </g>
                  <g
                    opacity="1"
                    transform="matrix(1,0,0,1,1307.9300537109375,946.8150024414062)"
                  >
                    <path
                      fill="rgb(78,37,166)"
                      fill-opacity="1"
                      d=" M-19.775999069213867,-131.3459930419922 C-100.80599975585938,-131.3459930419922 -169.4770050048828,-65.46800231933594 -227.0279998779297,-107.18699645996094 C-232.2779998779297,-113.9749984741211 -235.53599548339844,-122.93599700927734 -237.30299377441406,-133.18499755859375 C-240.7100067138672,-103.95500183105469 -239.5,-75.55000305175781 -227.93600463867188,-59.36899948120117 C-174.7570037841797,-17.649999618530273 -111.302001953125,-83.5270004272461 -36.426998138427734,-83.5270004272461 C71.91600036621094,-83.5270004272461 165.33299255371094,5.191999912261963 208.29100036621094,133.18499755859375 C221.28700256347656,115.51200103759766 232.11000061035156,95.57599639892578 240.71099853515625,73.91300201416016 C192.46600341796875,-47.887001037597656 93.94499969482422,-131.3459930419922 -19.775999069213867,-131.3459930419922 C-19.775999069213867,-131.3459930419922 -19.775999069213867,-131.3459930419922 -19.775999069213867,-131.3459930419922 C-19.775999069213867,-131.3459930419922 -19.775999069213867,-131.3459930419922 -19.775999069213867,-131.3459930419922z"
                    ></path>
                  </g>
                </g>
                <g
                  opacity="1"
                  transform="matrix(0.9452910423278809,-0.32622817158699036,0.32622817158699036,0.9452910423278809,-1191.71533203125,-601.9080200195312)"
                >
                  <g
                    opacity="1"
                    transform="matrix(1,0,0,1,836.85302734375,770.6430053710938)"
                  >
                    <path
                      fill="rgb(120,64,236)"
                      fill-opacity="1"
                      d=" M-209.98800659179688,-71.73100280761719 C-161.09500122070312,-187.8939971923828 -76.59500122070312,-273.3089904785156 13.029000282287598,-309.35699462890625 C4.054999828338623,-284.41400146484375 -1.0219999551773071,-256.2919921875 -1.0219999551773071,-226.50799560546875 C-1.0219999551773071,-124.00499725341797 58.78200149536133,-40.909000396728516 132.552001953125,-40.909000396728516 C178.56399536132812,-40.909000396728516 213.24899291992188,-75.45999908447266 228.0330047607422,-50.80500030517578 C241.20599365234375,-23.82900047302246 269.9530029296875,79.3030014038086 243.15499877929688,116.8030014038086 C189.97500610351562,158.52200317382812 126.52100372314453,92.64399719238281 51.645999908447266,92.64399719238281 C-56.698001861572266,92.64399719238281 -150.11500549316406,181.36399841308594 -193.072998046875,309.35699462890625 C-259.3940124511719,219.17300415039062 -269.9519958496094,70.73799896240234 -209.98800659179688,-71.73100280761719 C-209.98800659179688,-71.73100280761719 -209.98800659179688,-71.73100280761719 -209.98800659179688,-71.73100280761719 C-209.98800659179688,-71.73100280761719 -209.98800659179688,-71.73100280761719 -209.98800659179688,-71.73100280761719z"
                    ></path>
                  </g>
                  <g
                    opacity="1"
                    transform="matrix(1,0,0,1,852.0430297851562,946.8150024414062)"
                  >
                    <path
                      fill="rgb(78,37,166)"
                      fill-opacity="1"
                      d=" M19.775999069213867,-131.3459930419922 C100.80599975585938,-131.3459930419922 169.4770050048828,-65.46800231933594 227.0279998779297,-107.18699645996094 C232.2779998779297,-113.9749984741211 235.53599548339844,-122.93599700927734 237.3040008544922,-133.18499755859375 C240.7100067138672,-103.95500183105469 239.5,-75.55000305175781 227.93600463867188,-59.36899948120117 C174.7570037841797,-17.649999618530273 111.3030014038086,-83.5270004272461 36.428001403808594,-83.5270004272461 C-71.91699981689453,-83.5270004272461 -165.33299255371094,5.191999912261963 -208.29100036621094,133.18499755859375 C-221.28700256347656,115.51200103759766 -232.10899353027344,95.57599639892578 -240.71099853515625,73.91300201416016 C-192.46600341796875,-47.887001037597656 -93.94400024414062,-131.3459930419922 19.775999069213867,-131.3459930419922 C19.775999069213867,-131.3459930419922 19.775999069213867,-131.3459930419922 19.775999069213867,-131.3459930419922 C19.775999069213867,-131.3459930419922 19.775999069213867,-131.3459930419922 19.775999069213867,-131.3459930419922z"
                    ></path>
                  </g>
                </g>
                <g
                  opacity="1"
                  transform="matrix(1,0,0,1,79.99307250976562,-188.85699462890625)"
                >
                  <path
                    fill="rgb(120,64,236)"
                    fill-opacity="1"
                    d=" M66.8479995727539,-91.5979995727539 C42.573001861572266,-101.18299865722656 24.025999069213867,-113.73400115966797 0.009999999776482582,-162.9029998779297 C0.008999999612569809,-162.91299438476562 0.00800000037997961,-162.9290008544922 0.006000000052154064,-162.93800354003906 C0.004000000189989805,-162.93299865722656 0.003000000026077032,-162.9290008544922 0,-162.9239959716797 C-0.0020000000949949026,-162.9290008544922 -0.004000000189989805,-162.93299865722656 -0.006000000052154064,-162.93800354003906 C-0.007000000216066837,-162.9290008544922 -0.008999999612569809,-162.91299438476562 -0.009999999776482582,-162.9029998779297 C-24.025999069213867,-113.73400115966797 -42.57099914550781,-101.18299865722656 -66.84700012207031,-91.5979995727539 C-73.10900115966797,-89.125 -125.27200317382812,35.68199920654297 -87.61699676513672,80.96399688720703 C-44.167999267578125,107.84300231933594 -31.097000122070312,123.75199890136719 -0.006000000052154064,162.92100524902344 C-0.006000000052154064,162.92100524902344 -0.006000000052154064,162.93800354003906 -0.006000000052154064,162.93800354003906 C-0.004000000189989805,162.93499755859375 -0.0020000000949949026,162.93299865722656 0,162.92999267578125 C0.003000000026077032,162.93299865722656 0.004000000189989805,162.93499755859375 0.006000000052154064,162.93800354003906 C0.006000000052154064,162.93800354003906 0.006000000052154064,162.92100524902344 0.006000000052154064,162.92100524902344 C31.097000122070312,123.75199890136719 44.16899871826172,107.84300231933594 87.61900329589844,80.96399688720703 C125.27300262451172,35.68199920654297 73.11000061035156,-89.125 66.8479995727539,-91.5979995727539 C66.8479995727539,-91.5979995727539 66.8479995727539,-91.5979995727539 66.8479995727539,-91.5979995727539 C66.8479995727539,-91.5979995727539 66.8479995727539,-91.5979995727539 66.8479995727539,-91.5979995727539z"
                  ></path>
                </g>
                <g
                  opacity="1"
                  transform="matrix(1,0,0,1,128.46498107910156,-127.76898193359375)"
                >
                  <path
                    fill="rgb(78,37,166)"
                    fill-opacity="1"
                    d=" M39.87300109863281,-101.8499984741211 C39.354000091552734,-56.733001708984375 33.159000396728516,-3.921999931335449 13.369000434875488,19.87700080871582 C-23.589000701904297,42.74100112915039 -38.573001861572266,57.67499923706055 -61.36000061035156,85.73200225830078 C-57.358001708984375,90.65899658203125 -53.12200164794922,95.98200225830078 -48.47800064086914,101.83200073242188 C-48.47800064086914,101.83200073242188 -48.47800064086914,101.8499984741211 -48.47800064086914,101.8499984741211 C-48.47600173950195,101.8479995727539 -48.4739990234375,101.84400177001953 -48.47200012207031,101.84100341796875 C-48.46900177001953,101.84400177001953 -48.46699905395508,101.8479995727539 -48.46500015258789,101.8499984741211 C-48.46500015258789,101.8499984741211 -48.46500015258789,101.83200073242188 -48.46500015258789,101.83200073242188 C-17.374000549316406,62.66299819946289 -4.302999973297119,46.75600051879883 39.145999908447266,19.87700080871582 C61.36000061035156,-6.8379998207092285 52.3129997253418,-61.22700119018555 39.87300109863281,-101.8499984741211 C39.87300109863281,-101.8499984741211 39.87300109863281,-101.8499984741211 39.87300109863281,-101.8499984741211 C39.87300109863281,-101.8499984741211 39.87300109863281,-101.8499984741211 39.87300109863281,-101.8499984741211z"
                  ></path>
                </g>
                <g
                  opacity="1"
                  transform="matrix(1,0,0,1,31.535093307495117,-127.76898193359375)"
                >
                  <path
                    fill="rgb(78,37,166)"
                    fill-opacity="1"
                    d=" M-39.87200164794922,-101.8499984741211 C-39.35300064086914,-56.733001708984375 -33.15800094604492,-3.921999931335449 -13.368000030517578,19.87700080871582 C23.59000015258789,42.74100112915039 38.573001861572266,57.67499923706055 61.36000061035156,85.73200225830078 C57.358001708984375,90.65899658203125 53.12300109863281,95.98200225830078 48.479000091552734,101.83200073242188 C48.479000091552734,101.83200073242188 48.479000091552734,101.8499984741211 48.479000091552734,101.8499984741211 C48.47700119018555,101.8479995727539 48.474998474121094,101.84400177001953 48.472999572753906,101.84100341796875 C48.470001220703125,101.84400177001953 48.46699905395508,101.8479995727539 48.46500015258789,101.8499984741211 C48.46500015258789,101.8499984741211 48.46500015258789,101.83200073242188 48.46500015258789,101.83200073242188 C17.374000549316406,62.66299819946289 4.303999900817871,46.75600051879883 -39.14500045776367,19.87700080871582 C-61.36000061035156,-6.8379998207092285 -52.3120002746582,-61.22700119018555 -39.87200164794922,-101.8499984741211 C-39.87200164794922,-101.8499984741211 -39.87200164794922,-101.8499984741211 -39.87200164794922,-101.8499984741211 C-39.87200164794922,-101.8499984741211 -39.87200164794922,-101.8499984741211 -39.87200164794922,-101.8499984741211z"
                  ></path>
                </g>
                <g
                  opacity="1"
                  transform="matrix(1,0,0,1,-1000,-999.9149780273438)"
                >
                  <g
                    opacity="1"
                    transform="matrix(1,0,0,1,1075.281982421875,686.781982421875)"
                  >
                    <path
                      fill="rgb(120,64,236)"
                      fill-opacity="1"
                      d=" M56.367000579833984,-61.172000885009766 C57.46500015258789,-63.667999267578125 58.41999816894531,-66.25 59.19599914550781,-68.93000030517578 C63.75,-84.66100311279297 61.78300094604492,-100.8740005493164 54.823001861572266,-115.1500015258789 C44.02299880981445,-108.4739990234375 35.26900100708008,-99.04000091552734 29.863000869750977,-87.48799896240234 C20.69499969482422,-92.94000244140625 10.602999687194824,-95.96600341796875 0,-95.96600341796875 C-10.602999687194824,-95.96600341796875 -20.69499969482422,-92.94000244140625 -29.86199951171875,-87.48799896240234 C-35.27000045776367,-99.04000091552734 -44.02399826049805,-108.4739990234375 -54.82400131225586,-115.1500015258789 C-61.784000396728516,-100.8740005493164 -63.75,-84.66100311279297 -59.19599914550781,-68.93000030517578 C-58.41999816894531,-66.25 -57.46500015258789,-63.667999267578125 -56.36600112915039,-61.172000885009766 C-68.54900360107422,-42.45000076293945 -75.97000122070312,-17.634000778198242 -75.97000122070312,9.592000007629395 C-75.97000122070312,67.89099884033203 -41.957000732421875,115.1500015258789 0,115.1500015258789 C41.95800018310547,115.1500015258789 75.97000122070312,67.89099884033203 75.97000122070312,9.592000007629395 C75.97000122070312,-17.634000778198242 68.54900360107422,-42.45000076293945 56.367000579833984,-61.172000885009766 C56.367000579833984,-61.172000885009766 56.367000579833984,-61.172000885009766 56.367000579833984,-61.172000885009766 C56.367000579833984,-61.172000885009766 56.367000579833984,-61.172000885009766 56.367000579833984,-61.172000885009766z"
                    ></path>
                  </g>
                  <g
                    opacity="1"
                    transform="matrix(1,0,0,1,1075.281982421875,744.35400390625)"
                  >
                    <path
                      fill="rgb(78,37,166)"
                      fill-opacity="1"
                      d=" M0,38.54899978637695 C-39.66699981689453,38.54899978637695 -72.21800231933594,-3.7019999027252197 -75.65299987792969,-57.57899856567383 C-75.85800170898438,-54.41699981689453 -75.97100067138672,-51.21699905395508 -75.97100067138672,-47.97999954223633 C-75.97100067138672,10.319000244140625 -41.957000732421875,57.57899856567383 0,57.57899856567383 C41.95800018310547,57.57899856567383 75.97000122070312,10.319000244140625 75.97000122070312,-47.97999954223633 C75.97000122070312,-51.21699905395508 75.85700225830078,-54.41699981689453 75.6510009765625,-57.57899856567383 C72.21600341796875,-3.7019999027252197 39.66899871826172,38.54899978637695 0,38.54899978637695 C0,38.54899978637695 0,38.54899978637695 0,38.54899978637695 C0,38.54899978637695 0,38.54899978637695 0,38.54899978637695z"
                    ></path>
                  </g>
                </g>
              </g>
            </g>
          </g>
        </svg>